# xmcd
#
# Track frame offsets: 
#        150
#        10578
#        21129
#        34094
#        46988
#        59413
#        71965
#        85008
#        98931
#        110447
#        120247
#        135987
#        148517
#        158522
#        170238
#        179942
#        194299
#        206572
#        219270
#        230762
#        248325
#        258368
#        270924
#        280643
#        294564
#        307987
#        317706
#        331116
#
# Disc length: 4579 seconds
#
# Revision: 0
# Processed by: cddbd v1.5.2PL0 Copyright (c) Steve Scherf et al.
# Submitted via: ExactAudioCopy v1.3
#
DISCID=8611e11c
DTITLE=Lefty Frizzell - CD08_Recordings 1967-70
DYEAR=2018
DGENRE=Country
TTITLE0=When The Rooster Leaves The Yard
TTITLE1=Anything You Can Spare
TTITLE2=Only Way To Fly (Original Vocal)
TTITLE3=Only Way To Fly (Laughing Version)
TTITLE4=A Prayer On Your Lips Is Like Freedom In Your Hands
TTITLE5=Little Old Winedrinker Me
TTITLE6=A Word Or Two To Mary
TTITLE7=Almost Persuaded
TTITLE8=Lefty Frizzell and June Stearns - Have You Ever Been Untrue
TTITLE9=Lefty Frizzell and June Stearns - If You've Got The Money, I've 
TTITLE9=Got The Time
TTITLE10=When The Grass Grows Green Again
TTITLE11=The Marriage Bit
TTITLE12=I'll Remember You
TTITLE13=Wasted Way Of Life
TTITLE14=Keep Them Flowers Watered While I'm Gone
TTITLE15=An Article From Life (With Chorus)
TTITLE16=Blind Street Singer
TTITLE17=Honky Tonk Hill
TTITLE18=My Baby Is A Tramp
TTITLE19=She Brought Love Sweet Love
TTITLE20=Watermelon Time In Georgia
TTITLE21=I Must Be Getting Over You
TTITLE22=Out Of You
TTITLE23=It's Raining All Over The World
TTITLE24=There's Something Lonely In This House
TTITLE25=Three Cheers For The Good Guys
TTITLE26=An Article From Life (Without Chorus)
TTITLE27=Honky Tonk Hill (Without Overdub)
EXTD=
EXTT0=
EXTT1=
EXTT2=
EXTT3=
EXTT4=
EXTT5=
EXTT6=
EXTT7=
EXTT8=
EXTT9=
EXTT10=
EXTT11=
EXTT12=
EXTT13=
EXTT14=
EXTT15=
EXTT16=
EXTT17=
EXTT18=
EXTT19=
EXTT20=
EXTT21=
EXTT22=
EXTT23=
EXTT24=
EXTT25=
EXTT26=
EXTT27=
PLAYORDER=
